<mxfile host="app.diagrams.net" modified="2023-05-11T06:09:25.692Z" agent="Mozilla/5.0 (X11; Linux x86_64) AppleWebKit/537.36 (KHTML, like Gecko) Chrome/110.0.0.0 Safari/537.36" etag="ldpZd91HbVUaOXHFRKnA" version="21.2.9" type="device">
  <diagram name="Página-1" id="0FsT7Po114vzeRSJ4m-_">
    <mxGraphModel dx="2824" dy="790" grid="1" gridSize="10" guides="1" tooltips="1" connect="1" arrows="1" fold="1" page="1" pageScale="1" pageWidth="827" pageHeight="1169" math="0" shadow="0">
      <root>
        <mxCell id="0" />
        <mxCell id="1" parent="0" />
        <mxCell id="2chP5V-80Bp2So6Rcc1P-2" value="Produto" style="rounded=0;whiteSpace=wrap;html=1;" parent="1" vertex="1">
          <mxGeometry x="170" y="250" width="120" height="60" as="geometry" />
        </mxCell>
        <mxCell id="2chP5V-80Bp2So6Rcc1P-5" value="Nome" style="ellipse;whiteSpace=wrap;html=1;" parent="1" vertex="1">
          <mxGeometry x="-50" y="360" width="120" height="50" as="geometry" />
        </mxCell>
        <mxCell id="2chP5V-80Bp2So6Rcc1P-6" value="" style="endArrow=classic;html=1;rounded=0;exitX=0;exitY=0.5;exitDx=0;exitDy=0;entryX=0.983;entryY=0.26;entryDx=0;entryDy=0;entryPerimeter=0;" parent="1" source="2chP5V-80Bp2So6Rcc1P-2" target="2chP5V-80Bp2So6Rcc1P-5" edge="1">
          <mxGeometry width="50" height="50" relative="1" as="geometry">
            <mxPoint x="210" y="240" as="sourcePoint" />
            <mxPoint x="260" y="190" as="targetPoint" />
          </mxGeometry>
        </mxCell>
        <mxCell id="2chP5V-80Bp2So6Rcc1P-8" value="Preço unitario" style="ellipse;whiteSpace=wrap;html=1;" parent="1" vertex="1">
          <mxGeometry x="70" y="390" width="120" height="50" as="geometry" />
        </mxCell>
        <mxCell id="2chP5V-80Bp2So6Rcc1P-9" value="Descrição" style="ellipse;whiteSpace=wrap;html=1;" parent="1" vertex="1">
          <mxGeometry x="-70" y="270" width="120" height="50" as="geometry" />
        </mxCell>
        <mxCell id="2chP5V-80Bp2So6Rcc1P-10" value="" style="endArrow=classic;html=1;rounded=0;exitX=0;exitY=0.5;exitDx=0;exitDy=0;entryX=0.5;entryY=0;entryDx=0;entryDy=0;" parent="1" source="2chP5V-80Bp2So6Rcc1P-2" target="2chP5V-80Bp2So6Rcc1P-8" edge="1">
          <mxGeometry width="50" height="50" relative="1" as="geometry">
            <mxPoint x="290" y="239" as="sourcePoint" />
            <mxPoint x="182" y="180" as="targetPoint" />
          </mxGeometry>
        </mxCell>
        <mxCell id="2chP5V-80Bp2So6Rcc1P-12" value="" style="endArrow=classic;html=1;rounded=0;entryX=1;entryY=0.5;entryDx=0;entryDy=0;exitX=0;exitY=0.5;exitDx=0;exitDy=0;" parent="1" source="2chP5V-80Bp2So6Rcc1P-2" target="2chP5V-80Bp2So6Rcc1P-9" edge="1">
          <mxGeometry width="50" height="50" relative="1" as="geometry">
            <mxPoint x="210" y="240" as="sourcePoint" />
            <mxPoint x="260" y="190" as="targetPoint" />
            <Array as="points" />
          </mxGeometry>
        </mxCell>
        <mxCell id="2chP5V-80Bp2So6Rcc1P-13" value="&lt;u&gt;Codigo Unico&lt;/u&gt;" style="ellipse;whiteSpace=wrap;html=1;" parent="1" vertex="1">
          <mxGeometry x="-50" y="205" width="120" height="50" as="geometry" />
        </mxCell>
        <mxCell id="2chP5V-80Bp2So6Rcc1P-14" value="" style="endArrow=classic;html=1;rounded=0;entryX=1;entryY=1;entryDx=0;entryDy=0;exitX=0;exitY=0.5;exitDx=0;exitDy=0;" parent="1" source="2chP5V-80Bp2So6Rcc1P-2" target="2chP5V-80Bp2So6Rcc1P-13" edge="1">
          <mxGeometry width="50" height="50" relative="1" as="geometry">
            <mxPoint x="170" y="290" as="sourcePoint" />
            <mxPoint x="298" y="163" as="targetPoint" />
            <Array as="points" />
          </mxGeometry>
        </mxCell>
        <mxCell id="2chP5V-80Bp2So6Rcc1P-15" value="Fornecedor" style="rounded=0;whiteSpace=wrap;html=1;" parent="1" vertex="1">
          <mxGeometry x="640" y="250" width="120" height="60" as="geometry" />
        </mxCell>
        <mxCell id="2chP5V-80Bp2So6Rcc1P-16" value="Nome" style="ellipse;whiteSpace=wrap;html=1;" parent="1" vertex="1">
          <mxGeometry x="510" y="150" width="120" height="50" as="geometry" />
        </mxCell>
        <mxCell id="2chP5V-80Bp2So6Rcc1P-17" value="" style="endArrow=classic;html=1;rounded=0;exitX=0.5;exitY=0;exitDx=0;exitDy=0;entryX=1;entryY=1;entryDx=0;entryDy=0;" parent="1" source="2chP5V-80Bp2So6Rcc1P-15" target="2chP5V-80Bp2So6Rcc1P-16" edge="1">
          <mxGeometry width="50" height="50" relative="1" as="geometry">
            <mxPoint x="680" y="240" as="sourcePoint" />
            <mxPoint x="730" y="190" as="targetPoint" />
          </mxGeometry>
        </mxCell>
        <mxCell id="2chP5V-80Bp2So6Rcc1P-18" value="&lt;u&gt;CNPJ&lt;/u&gt;" style="ellipse;whiteSpace=wrap;html=1;" parent="1" vertex="1">
          <mxGeometry x="640" y="130" width="120" height="50" as="geometry" />
        </mxCell>
        <mxCell id="2chP5V-80Bp2So6Rcc1P-20" value="" style="endArrow=classic;html=1;rounded=0;exitX=0.5;exitY=0;exitDx=0;exitDy=0;entryX=0.5;entryY=1;entryDx=0;entryDy=0;" parent="1" source="2chP5V-80Bp2So6Rcc1P-15" target="2chP5V-80Bp2So6Rcc1P-18" edge="1">
          <mxGeometry width="50" height="50" relative="1" as="geometry">
            <mxPoint x="760" y="239" as="sourcePoint" />
            <mxPoint x="652" y="180" as="targetPoint" />
          </mxGeometry>
        </mxCell>
        <mxCell id="2chP5V-80Bp2So6Rcc1P-22" value="&lt;u&gt;Codigo Unico&lt;/u&gt;" style="ellipse;whiteSpace=wrap;html=1;" parent="1" vertex="1">
          <mxGeometry x="760" y="150" width="120" height="50" as="geometry" />
        </mxCell>
        <mxCell id="2chP5V-80Bp2So6Rcc1P-23" value="" style="endArrow=classic;html=1;rounded=0;entryX=0;entryY=1;entryDx=0;entryDy=0;exitX=0.5;exitY=0;exitDx=0;exitDy=0;" parent="1" source="2chP5V-80Bp2So6Rcc1P-15" target="2chP5V-80Bp2So6Rcc1P-22" edge="1">
          <mxGeometry width="50" height="50" relative="1" as="geometry">
            <mxPoint x="710" y="260" as="sourcePoint" />
            <mxPoint x="768" y="163" as="targetPoint" />
            <Array as="points" />
          </mxGeometry>
        </mxCell>
        <mxCell id="2chP5V-80Bp2So6Rcc1P-24" value="Endereço" style="rounded=0;whiteSpace=wrap;html=1;" parent="1" vertex="1">
          <mxGeometry x="640" y="650" width="120" height="60" as="geometry" />
        </mxCell>
        <mxCell id="2chP5V-80Bp2So6Rcc1P-25" value="Nome" style="ellipse;whiteSpace=wrap;html=1;" parent="1" vertex="1">
          <mxGeometry x="460" y="590" width="120" height="50" as="geometry" />
        </mxCell>
        <mxCell id="2chP5V-80Bp2So6Rcc1P-26" value="" style="endArrow=classic;html=1;rounded=0;exitX=0;exitY=0.5;exitDx=0;exitDy=0;entryX=1;entryY=1;entryDx=0;entryDy=0;" parent="1" source="2chP5V-80Bp2So6Rcc1P-24" target="2chP5V-80Bp2So6Rcc1P-25" edge="1">
          <mxGeometry width="50" height="50" relative="1" as="geometry">
            <mxPoint x="680" y="640" as="sourcePoint" />
            <mxPoint x="730" y="590" as="targetPoint" />
          </mxGeometry>
        </mxCell>
        <mxCell id="2chP5V-80Bp2So6Rcc1P-27" value="Logradouro" style="ellipse;whiteSpace=wrap;html=1;" parent="1" vertex="1">
          <mxGeometry x="450" y="715" width="120" height="40" as="geometry" />
        </mxCell>
        <mxCell id="2chP5V-80Bp2So6Rcc1P-28" value="CEP" style="ellipse;whiteSpace=wrap;html=1;" parent="1" vertex="1">
          <mxGeometry x="827" y="590" width="120" height="50" as="geometry" />
        </mxCell>
        <mxCell id="2chP5V-80Bp2So6Rcc1P-29" value="" style="endArrow=classic;html=1;rounded=0;exitX=0;exitY=0.5;exitDx=0;exitDy=0;entryX=0.942;entryY=0.22;entryDx=0;entryDy=0;entryPerimeter=0;" parent="1" source="2chP5V-80Bp2So6Rcc1P-24" target="2chP5V-80Bp2So6Rcc1P-27" edge="1">
          <mxGeometry width="50" height="50" relative="1" as="geometry">
            <mxPoint x="760" y="639" as="sourcePoint" />
            <mxPoint x="652" y="580" as="targetPoint" />
          </mxGeometry>
        </mxCell>
        <mxCell id="2chP5V-80Bp2So6Rcc1P-30" value="" style="endArrow=classic;html=1;rounded=0;entryX=0;entryY=1;entryDx=0;entryDy=0;exitX=1;exitY=0.5;exitDx=0;exitDy=0;" parent="1" source="2chP5V-80Bp2So6Rcc1P-24" target="2chP5V-80Bp2So6Rcc1P-28" edge="1">
          <mxGeometry width="50" height="50" relative="1" as="geometry">
            <mxPoint x="680" y="640" as="sourcePoint" />
            <mxPoint x="730" y="590" as="targetPoint" />
            <Array as="points" />
          </mxGeometry>
        </mxCell>
        <mxCell id="2chP5V-80Bp2So6Rcc1P-31" value="Numero" style="ellipse;whiteSpace=wrap;html=1;" parent="1" vertex="1">
          <mxGeometry x="827" y="650" width="120" height="50" as="geometry" />
        </mxCell>
        <mxCell id="2chP5V-80Bp2So6Rcc1P-32" value="" style="endArrow=classic;html=1;rounded=0;entryX=0;entryY=0.5;entryDx=0;entryDy=0;exitX=1;exitY=0.5;exitDx=0;exitDy=0;" parent="1" source="2chP5V-80Bp2So6Rcc1P-24" target="2chP5V-80Bp2So6Rcc1P-31" edge="1">
          <mxGeometry width="50" height="50" relative="1" as="geometry">
            <mxPoint x="710" y="660" as="sourcePoint" />
            <mxPoint x="768" y="563" as="targetPoint" />
            <Array as="points" />
          </mxGeometry>
        </mxCell>
        <mxCell id="2chP5V-80Bp2So6Rcc1P-34" value="Bairro" style="ellipse;whiteSpace=wrap;html=1;" parent="1" vertex="1">
          <mxGeometry x="450" y="650" width="120" height="50" as="geometry" />
        </mxCell>
        <mxCell id="2chP5V-80Bp2So6Rcc1P-35" value="" style="endArrow=classic;html=1;rounded=0;exitX=0;exitY=0.5;exitDx=0;exitDy=0;entryX=1;entryY=0.5;entryDx=0;entryDy=0;" parent="1" source="2chP5V-80Bp2So6Rcc1P-24" target="2chP5V-80Bp2So6Rcc1P-34" edge="1">
          <mxGeometry width="50" height="50" relative="1" as="geometry">
            <mxPoint x="330" y="700" as="sourcePoint" />
            <mxPoint x="580" y="680" as="targetPoint" />
            <Array as="points" />
          </mxGeometry>
        </mxCell>
        <mxCell id="2chP5V-80Bp2So6Rcc1P-36" value="Cidade" style="ellipse;whiteSpace=wrap;html=1;" parent="1" vertex="1">
          <mxGeometry x="827" y="710" width="120" height="40" as="geometry" />
        </mxCell>
        <mxCell id="2chP5V-80Bp2So6Rcc1P-37" value="" style="endArrow=classic;html=1;rounded=0;entryX=0;entryY=0.5;entryDx=0;entryDy=0;exitX=1;exitY=0.5;exitDx=0;exitDy=0;" parent="1" source="2chP5V-80Bp2So6Rcc1P-24" target="2chP5V-80Bp2So6Rcc1P-36" edge="1">
          <mxGeometry width="50" height="50" relative="1" as="geometry">
            <mxPoint x="740" y="700" as="sourcePoint" />
            <mxPoint x="870" y="715" as="targetPoint" />
            <Array as="points" />
          </mxGeometry>
        </mxCell>
        <mxCell id="2chP5V-80Bp2So6Rcc1P-38" value="Loja" style="rounded=0;whiteSpace=wrap;html=1;" parent="1" vertex="1">
          <mxGeometry x="1190" y="250" width="120" height="60" as="geometry" />
        </mxCell>
        <mxCell id="2chP5V-80Bp2So6Rcc1P-39" value="Nome" style="ellipse;whiteSpace=wrap;html=1;" parent="1" vertex="1">
          <mxGeometry x="990" y="200" width="120" height="50" as="geometry" />
        </mxCell>
        <mxCell id="2chP5V-80Bp2So6Rcc1P-40" value="" style="endArrow=classic;html=1;rounded=0;exitX=0;exitY=0;exitDx=0;exitDy=0;entryX=1;entryY=1;entryDx=0;entryDy=0;" parent="1" source="2chP5V-80Bp2So6Rcc1P-38" target="2chP5V-80Bp2So6Rcc1P-39" edge="1">
          <mxGeometry width="50" height="50" relative="1" as="geometry">
            <mxPoint x="1206" y="240" as="sourcePoint" />
            <mxPoint x="1256" y="190" as="targetPoint" />
          </mxGeometry>
        </mxCell>
        <mxCell id="2chP5V-80Bp2So6Rcc1P-41" value="&lt;u&gt;CNPJ&lt;/u&gt;" style="ellipse;whiteSpace=wrap;html=1;" parent="1" vertex="1">
          <mxGeometry x="1070" y="150" width="120" height="50" as="geometry" />
        </mxCell>
        <mxCell id="2chP5V-80Bp2So6Rcc1P-42" value="" style="endArrow=classic;html=1;rounded=0;exitX=0;exitY=0;exitDx=0;exitDy=0;entryX=0.5;entryY=1;entryDx=0;entryDy=0;" parent="1" source="2chP5V-80Bp2So6Rcc1P-38" target="2chP5V-80Bp2So6Rcc1P-41" edge="1">
          <mxGeometry width="50" height="50" relative="1" as="geometry">
            <mxPoint x="1286" y="239" as="sourcePoint" />
            <mxPoint x="1178" y="180" as="targetPoint" />
          </mxGeometry>
        </mxCell>
        <mxCell id="2chP5V-80Bp2So6Rcc1P-43" value="" style="endArrow=classic;html=1;rounded=0;entryX=0.5;entryY=1;entryDx=0;entryDy=0;exitX=1;exitY=0;exitDx=0;exitDy=0;" parent="1" source="2chP5V-80Bp2So6Rcc1P-38" target="2chP5V-80Bp2So6Rcc1P-167" edge="1">
          <mxGeometry width="50" height="50" relative="1" as="geometry">
            <mxPoint x="1206" y="240" as="sourcePoint" />
            <mxPoint x="1299" y="146.25" as="targetPoint" />
            <Array as="points" />
          </mxGeometry>
        </mxCell>
        <mxCell id="2chP5V-80Bp2So6Rcc1P-44" value="&lt;u&gt;Codigo Unico&lt;/u&gt;" style="ellipse;whiteSpace=wrap;html=1;" parent="1" vertex="1">
          <mxGeometry x="1410" y="200" width="120" height="50" as="geometry" />
        </mxCell>
        <mxCell id="2chP5V-80Bp2So6Rcc1P-45" value="" style="endArrow=classic;html=1;rounded=0;entryX=0;entryY=0.5;entryDx=0;entryDy=0;exitX=1;exitY=0;exitDx=0;exitDy=0;" parent="1" source="2chP5V-80Bp2So6Rcc1P-38" target="2chP5V-80Bp2So6Rcc1P-44" edge="1">
          <mxGeometry width="50" height="50" relative="1" as="geometry">
            <mxPoint x="1236" y="260" as="sourcePoint" />
            <mxPoint x="1294" y="163" as="targetPoint" />
            <Array as="points" />
          </mxGeometry>
        </mxCell>
        <mxCell id="2chP5V-80Bp2So6Rcc1P-51" value="1 ou N" style="text;html=1;align=center;verticalAlign=middle;resizable=0;points=[];autosize=1;strokeColor=none;fillColor=none;" parent="1" vertex="1">
          <mxGeometry x="280" y="250" width="60" height="30" as="geometry" />
        </mxCell>
        <mxCell id="2chP5V-80Bp2So6Rcc1P-53" value="Possui" style="shape=rhombus;perimeter=rhombusPerimeter;whiteSpace=wrap;html=1;align=center;" parent="1" vertex="1">
          <mxGeometry x="640" y="430" width="120" height="60" as="geometry" />
        </mxCell>
        <mxCell id="2chP5V-80Bp2So6Rcc1P-55" value="" style="fontSize=12;html=1;endArrow=ERmandOne;rounded=0;exitX=0.5;exitY=1;exitDx=0;exitDy=0;" parent="1" source="2chP5V-80Bp2So6Rcc1P-53" target="2chP5V-80Bp2So6Rcc1P-24" edge="1">
          <mxGeometry width="100" height="100" relative="1" as="geometry">
            <mxPoint x="720" y="620" as="sourcePoint" />
            <mxPoint x="710" y="622" as="targetPoint" />
            <Array as="points">
              <mxPoint x="700" y="570" />
            </Array>
          </mxGeometry>
        </mxCell>
        <mxCell id="2chP5V-80Bp2So6Rcc1P-56" value="" style="fontSize=12;html=1;endArrow=ERmandOne;rounded=0;exitX=0.5;exitY=0;exitDx=0;exitDy=0;" parent="1" source="2chP5V-80Bp2So6Rcc1P-53" target="2chP5V-80Bp2So6Rcc1P-15" edge="1">
          <mxGeometry width="100" height="100" relative="1" as="geometry">
            <mxPoint x="827" y="300" as="sourcePoint" />
            <mxPoint x="827" y="460" as="targetPoint" />
            <Array as="points" />
          </mxGeometry>
        </mxCell>
        <mxCell id="2chP5V-80Bp2So6Rcc1P-57" value="1" style="text;html=1;align=center;verticalAlign=middle;resizable=0;points=[];autosize=1;strokeColor=none;fillColor=none;" parent="1" vertex="1">
          <mxGeometry x="700" y="310" width="30" height="30" as="geometry" />
        </mxCell>
        <mxCell id="2chP5V-80Bp2So6Rcc1P-58" value="1" style="text;html=1;align=center;verticalAlign=middle;resizable=0;points=[];autosize=1;strokeColor=none;fillColor=none;" parent="1" vertex="1">
          <mxGeometry x="700" y="620" width="30" height="30" as="geometry" />
        </mxCell>
        <mxCell id="2chP5V-80Bp2So6Rcc1P-59" value="1 ou N" style="text;html=1;align=center;verticalAlign=middle;resizable=0;points=[];autosize=1;strokeColor=none;fillColor=none;" parent="1" vertex="1">
          <mxGeometry x="580" y="250" width="60" height="30" as="geometry" />
        </mxCell>
        <mxCell id="2chP5V-80Bp2So6Rcc1P-60" value="" style="edgeStyle=entityRelationEdgeStyle;fontSize=12;html=1;endArrow=ERoneToMany;rounded=0;entryX=0;entryY=0.5;entryDx=0;entryDy=0;" parent="1" source="2chP5V-80Bp2So6Rcc1P-134" target="2chP5V-80Bp2So6Rcc1P-15" edge="1">
          <mxGeometry width="100" height="100" relative="1" as="geometry">
            <mxPoint x="540" y="280" as="sourcePoint" />
            <mxPoint x="540" y="330" as="targetPoint" />
          </mxGeometry>
        </mxCell>
        <mxCell id="2chP5V-80Bp2So6Rcc1P-62" value="" style="edgeStyle=entityRelationEdgeStyle;fontSize=12;html=1;endArrow=ERoneToMany;rounded=0;entryX=1;entryY=0.5;entryDx=0;entryDy=0;" parent="1" source="2chP5V-80Bp2So6Rcc1P-134" target="2chP5V-80Bp2So6Rcc1P-2" edge="1">
          <mxGeometry width="100" height="100" relative="1" as="geometry">
            <mxPoint x="400" y="280" as="sourcePoint" />
            <mxPoint x="420" y="350" as="targetPoint" />
          </mxGeometry>
        </mxCell>
        <mxCell id="2chP5V-80Bp2So6Rcc1P-73" value="Venda" style="rounded=0;whiteSpace=wrap;html=1;" parent="1" vertex="1">
          <mxGeometry x="1190" y="650" width="120" height="60" as="geometry" />
        </mxCell>
        <mxCell id="2chP5V-80Bp2So6Rcc1P-77" value="Numero fiscal" style="ellipse;whiteSpace=wrap;html=1;fontStyle=4" parent="1" vertex="1">
          <mxGeometry x="1000" y="585" width="120" height="50" as="geometry" />
        </mxCell>
        <mxCell id="2chP5V-80Bp2So6Rcc1P-78" value="" style="endArrow=classic;html=1;rounded=0;exitX=0;exitY=0.5;exitDx=0;exitDy=0;entryX=1;entryY=0.5;entryDx=0;entryDy=0;" parent="1" source="2chP5V-80Bp2So6Rcc1P-73" target="2chP5V-80Bp2So6Rcc1P-77" edge="1">
          <mxGeometry width="50" height="50" relative="1" as="geometry">
            <mxPoint x="1250" y="540" as="sourcePoint" />
            <mxPoint x="1256" y="480" as="targetPoint" />
          </mxGeometry>
        </mxCell>
        <mxCell id="2chP5V-80Bp2So6Rcc1P-79" value="Data/Hora" style="ellipse;whiteSpace=wrap;html=1;" parent="1" vertex="1">
          <mxGeometry x="1000" y="640" width="120" height="50" as="geometry" />
        </mxCell>
        <mxCell id="2chP5V-80Bp2So6Rcc1P-80" value="" style="endArrow=classic;html=1;rounded=0;exitX=0;exitY=0.5;exitDx=0;exitDy=0;" parent="1" source="2chP5V-80Bp2So6Rcc1P-73" target="2chP5V-80Bp2So6Rcc1P-79" edge="1">
          <mxGeometry width="50" height="50" relative="1" as="geometry">
            <mxPoint x="1250" y="540" as="sourcePoint" />
            <mxPoint x="1178" y="470" as="targetPoint" />
          </mxGeometry>
        </mxCell>
        <mxCell id="2chP5V-80Bp2So6Rcc1P-81" value="" style="endArrow=classic;html=1;rounded=0;exitX=1;exitY=1;exitDx=0;exitDy=0;entryX=0;entryY=0.5;entryDx=0;entryDy=0;" parent="1" source="2chP5V-80Bp2So6Rcc1P-73" target="2chP5V-80Bp2So6Rcc1P-88" edge="1">
          <mxGeometry width="50" height="50" relative="1" as="geometry">
            <mxPoint x="1230" y="750" as="sourcePoint" />
            <mxPoint x="1392.4242986581467" y="826.7251692894129" as="targetPoint" />
            <Array as="points" />
          </mxGeometry>
        </mxCell>
        <mxCell id="2chP5V-80Bp2So6Rcc1P-82" value="&lt;u&gt;Codigo Unico&lt;/u&gt;" style="ellipse;whiteSpace=wrap;html=1;" parent="1" vertex="1">
          <mxGeometry x="1310" y="780" width="120" height="50" as="geometry" />
        </mxCell>
        <mxCell id="2chP5V-80Bp2So6Rcc1P-83" value="" style="endArrow=classic;html=1;rounded=0;entryX=0;entryY=0;entryDx=0;entryDy=0;exitX=1;exitY=1;exitDx=0;exitDy=0;" parent="1" source="2chP5V-80Bp2So6Rcc1P-73" target="2chP5V-80Bp2So6Rcc1P-82" edge="1">
          <mxGeometry width="50" height="50" relative="1" as="geometry">
            <mxPoint x="1230" y="750" as="sourcePoint" />
            <mxPoint x="1280" y="623" as="targetPoint" />
            <Array as="points" />
          </mxGeometry>
        </mxCell>
        <mxCell id="2chP5V-80Bp2So6Rcc1P-85" value="Realiza" style="shape=rhombus;perimeter=rhombusPerimeter;whiteSpace=wrap;html=1;align=center;" parent="1" vertex="1">
          <mxGeometry x="1190" y="430" width="120" height="60" as="geometry" />
        </mxCell>
        <mxCell id="2chP5V-80Bp2So6Rcc1P-86" value="" style="fontSize=12;html=1;endArrow=ERzeroToMany;rounded=0;exitX=0.5;exitY=1;exitDx=0;exitDy=0;endFill=0;" parent="1" source="2chP5V-80Bp2So6Rcc1P-85" edge="1">
          <mxGeometry width="100" height="100" relative="1" as="geometry">
            <mxPoint x="1270" y="620" as="sourcePoint" />
            <mxPoint x="1250" y="650" as="targetPoint" />
            <Array as="points">
              <mxPoint x="1250" y="570" />
            </Array>
          </mxGeometry>
        </mxCell>
        <mxCell id="2chP5V-80Bp2So6Rcc1P-87" value="" style="fontSize=12;html=1;endArrow=ERmandOne;rounded=0;exitX=0.5;exitY=0;exitDx=0;exitDy=0;entryX=0.5;entryY=1;entryDx=0;entryDy=0;" parent="1" source="2chP5V-80Bp2So6Rcc1P-85" edge="1">
          <mxGeometry width="100" height="100" relative="1" as="geometry">
            <mxPoint x="1377" y="300" as="sourcePoint" />
            <mxPoint x="1250" y="310" as="targetPoint" />
            <Array as="points" />
          </mxGeometry>
        </mxCell>
        <mxCell id="2chP5V-80Bp2So6Rcc1P-88" value="Valor Total" style="ellipse;whiteSpace=wrap;html=1;" parent="1" vertex="1">
          <mxGeometry x="1350" y="715" width="120" height="50" as="geometry" />
        </mxCell>
        <mxCell id="2chP5V-80Bp2So6Rcc1P-89" value="Finished" style="ellipse;whiteSpace=wrap;html=1;" parent="1" vertex="1">
          <mxGeometry x="1000" y="700" width="120" height="50" as="geometry" />
        </mxCell>
        <mxCell id="2chP5V-80Bp2So6Rcc1P-90" value="" style="endArrow=classic;html=1;rounded=0;entryX=1;entryY=0;entryDx=0;entryDy=0;" parent="1" target="2chP5V-80Bp2So6Rcc1P-89" edge="1">
          <mxGeometry width="50" height="50" relative="1" as="geometry">
            <mxPoint x="1190" y="680" as="sourcePoint" />
            <mxPoint x="1391" y="895" as="targetPoint" />
            <Array as="points" />
          </mxGeometry>
        </mxCell>
        <mxCell id="2chP5V-80Bp2So6Rcc1P-92" value="Cliente" style="rounded=0;whiteSpace=wrap;html=1;" parent="1" vertex="1">
          <mxGeometry x="1635" y="650" width="120" height="60" as="geometry" />
        </mxCell>
        <mxCell id="2chP5V-80Bp2So6Rcc1P-93" value="Nome" style="ellipse;whiteSpace=wrap;html=1;" parent="1" vertex="1">
          <mxGeometry x="1480" y="550" width="120" height="50" as="geometry" />
        </mxCell>
        <mxCell id="2chP5V-80Bp2So6Rcc1P-94" value="" style="endArrow=classic;html=1;rounded=0;exitX=0.5;exitY=0;exitDx=0;exitDy=0;entryX=1;entryY=1;entryDx=0;entryDy=0;" parent="1" source="2chP5V-80Bp2So6Rcc1P-92" target="2chP5V-80Bp2So6Rcc1P-93" edge="1">
          <mxGeometry width="50" height="50" relative="1" as="geometry">
            <mxPoint x="1646" y="640" as="sourcePoint" />
            <mxPoint x="1696" y="590" as="targetPoint" />
          </mxGeometry>
        </mxCell>
        <mxCell id="2chP5V-80Bp2So6Rcc1P-95" value="&lt;u&gt;CPF&lt;/u&gt;" style="ellipse;whiteSpace=wrap;html=1;" parent="1" vertex="1">
          <mxGeometry x="1576" y="500" width="120" height="50" as="geometry" />
        </mxCell>
        <mxCell id="2chP5V-80Bp2So6Rcc1P-96" value="" style="endArrow=classic;html=1;rounded=0;exitX=0.5;exitY=0;exitDx=0;exitDy=0;entryX=0.5;entryY=1;entryDx=0;entryDy=0;" parent="1" source="2chP5V-80Bp2So6Rcc1P-92" target="2chP5V-80Bp2So6Rcc1P-95" edge="1">
          <mxGeometry width="50" height="50" relative="1" as="geometry">
            <mxPoint x="1726" y="639" as="sourcePoint" />
            <mxPoint x="1618" y="580" as="targetPoint" />
          </mxGeometry>
        </mxCell>
        <mxCell id="2chP5V-80Bp2So6Rcc1P-97" value="" style="endArrow=classic;html=1;rounded=0;entryX=0.5;entryY=1;entryDx=0;entryDy=0;exitX=0.5;exitY=0;exitDx=0;exitDy=0;" parent="1" source="2chP5V-80Bp2So6Rcc1P-92" target="2chP5V-80Bp2So6Rcc1P-166" edge="1">
          <mxGeometry width="50" height="50" relative="1" as="geometry">
            <mxPoint x="1646" y="640" as="sourcePoint" />
            <mxPoint x="1739" y="546.25" as="targetPoint" />
            <Array as="points" />
          </mxGeometry>
        </mxCell>
        <mxCell id="2chP5V-80Bp2So6Rcc1P-98" value="&lt;u&gt;Codigo Unico&lt;/u&gt;" style="ellipse;whiteSpace=wrap;html=1;" parent="1" vertex="1">
          <mxGeometry x="1786" y="560" width="120" height="50" as="geometry" />
        </mxCell>
        <mxCell id="2chP5V-80Bp2So6Rcc1P-99" value="" style="endArrow=classic;html=1;rounded=0;entryX=0;entryY=0.5;entryDx=0;entryDy=0;exitX=0.5;exitY=0;exitDx=0;exitDy=0;" parent="1" source="2chP5V-80Bp2So6Rcc1P-92" target="2chP5V-80Bp2So6Rcc1P-98" edge="1">
          <mxGeometry width="50" height="50" relative="1" as="geometry">
            <mxPoint x="1676" y="660" as="sourcePoint" />
            <mxPoint x="1734" y="563" as="targetPoint" />
            <Array as="points" />
          </mxGeometry>
        </mxCell>
        <mxCell id="2chP5V-80Bp2So6Rcc1P-105" value="Atrelado" style="shape=rhombus;perimeter=rhombusPerimeter;whiteSpace=wrap;html=1;align=center;" parent="1" vertex="1">
          <mxGeometry x="1410" y="650" width="120" height="60" as="geometry" />
        </mxCell>
        <mxCell id="2chP5V-80Bp2So6Rcc1P-106" value="" style="fontSize=12;html=1;endArrow=ERmandOne;rounded=0;exitX=1;exitY=0.5;exitDx=0;exitDy=0;entryX=0;entryY=0.5;entryDx=0;entryDy=0;" parent="1" source="2chP5V-80Bp2So6Rcc1P-105" target="2chP5V-80Bp2So6Rcc1P-92" edge="1">
          <mxGeometry width="100" height="100" relative="1" as="geometry">
            <mxPoint x="1590" y="840" as="sourcePoint" />
            <mxPoint x="1570" y="870" as="targetPoint" />
            <Array as="points" />
          </mxGeometry>
        </mxCell>
        <mxCell id="2chP5V-80Bp2So6Rcc1P-107" value="" style="fontSize=12;html=1;endArrow=ERzeroToMany;rounded=0;exitX=0;exitY=0.5;exitDx=0;exitDy=0;entryX=1;entryY=0.5;entryDx=0;entryDy=0;endFill=0;" parent="1" source="2chP5V-80Bp2So6Rcc1P-105" target="2chP5V-80Bp2So6Rcc1P-73" edge="1">
          <mxGeometry width="100" height="100" relative="1" as="geometry">
            <mxPoint x="1697" y="520" as="sourcePoint" />
            <mxPoint x="1570" y="530" as="targetPoint" />
            <Array as="points" />
          </mxGeometry>
        </mxCell>
        <mxCell id="2chP5V-80Bp2So6Rcc1P-108" value="0 ou N" style="text;html=1;align=center;verticalAlign=middle;resizable=0;points=[];autosize=1;strokeColor=none;fillColor=none;" parent="1" vertex="1">
          <mxGeometry x="1300" y="650" width="60" height="30" as="geometry" />
        </mxCell>
        <mxCell id="2chP5V-80Bp2So6Rcc1P-109" value="1" style="text;html=1;align=center;verticalAlign=middle;resizable=0;points=[];autosize=1;strokeColor=none;fillColor=none;" parent="1" vertex="1">
          <mxGeometry x="1600" y="650" width="30" height="30" as="geometry" />
        </mxCell>
        <mxCell id="2chP5V-80Bp2So6Rcc1P-110" value="1" style="text;html=1;align=center;verticalAlign=middle;resizable=0;points=[];autosize=1;strokeColor=none;fillColor=none;" parent="1" vertex="1">
          <mxGeometry x="1250" y="310" width="30" height="30" as="geometry" />
        </mxCell>
        <mxCell id="2chP5V-80Bp2So6Rcc1P-119" value="Quantidade" style="ellipse;whiteSpace=wrap;html=1;" parent="1" vertex="1">
          <mxGeometry x="820" y="40" width="120" height="40" as="geometry" />
        </mxCell>
        <mxCell id="2chP5V-80Bp2So6Rcc1P-134" value="Atrelado" style="shape=rhombus;perimeter=rhombusPerimeter;whiteSpace=wrap;html=1;align=center;" parent="1" vertex="1">
          <mxGeometry x="400" y="250" width="120" height="60" as="geometry" />
        </mxCell>
        <mxCell id="2chP5V-80Bp2So6Rcc1P-135" value="0 ou N" style="text;html=1;align=center;verticalAlign=middle;resizable=0;points=[];autosize=1;strokeColor=none;fillColor=none;" parent="1" vertex="1">
          <mxGeometry x="1196" y="620" width="60" height="30" as="geometry" />
        </mxCell>
        <mxCell id="2chP5V-80Bp2So6Rcc1P-143" value="Quantidade" style="ellipse;whiteSpace=wrap;html=1;" parent="1" vertex="1">
          <mxGeometry x="280" y="710" width="120" height="40" as="geometry" />
        </mxCell>
        <mxCell id="2chP5V-80Bp2So6Rcc1P-144" value="" style="endArrow=classic;html=1;rounded=0;exitX=1;exitY=0;exitDx=0;exitDy=0;entryX=0.092;entryY=0.75;entryDx=0;entryDy=0;entryPerimeter=0;" parent="1" source="2chP5V-80Bp2So6Rcc1P-158" target="2chP5V-80Bp2So6Rcc1P-143" edge="1">
          <mxGeometry width="50" height="50" relative="1" as="geometry">
            <mxPoint x="260" y="980" as="sourcePoint" />
            <mxPoint x="744" y="505" as="targetPoint" />
          </mxGeometry>
        </mxCell>
        <mxCell id="2chP5V-80Bp2So6Rcc1P-158" value="Contem" style="shape=rhombus;perimeter=rhombusPerimeter;whiteSpace=wrap;html=1;align=center;" parent="1" vertex="1">
          <mxGeometry x="170" y="780" width="120" height="60" as="geometry" />
        </mxCell>
        <mxCell id="2chP5V-80Bp2So6Rcc1P-159" value="" style="edgeStyle=orthogonalEdgeStyle;fontSize=12;html=1;endArrow=ERoneToMany;endFill=0;rounded=0;entryX=0.5;entryY=1;entryDx=0;entryDy=0;exitX=0.5;exitY=0;exitDx=0;exitDy=0;" parent="1" source="2chP5V-80Bp2So6Rcc1P-158" target="2chP5V-80Bp2So6Rcc1P-2" edge="1">
          <mxGeometry width="100" height="100" relative="1" as="geometry">
            <mxPoint x="230" y="760" as="sourcePoint" />
            <mxPoint x="320" y="655" as="targetPoint" />
            <Array as="points" />
          </mxGeometry>
        </mxCell>
        <mxCell id="2chP5V-80Bp2So6Rcc1P-162" value="" style="edgeStyle=orthogonalEdgeStyle;fontSize=12;html=1;endArrow=ERzeroToMany;endFill=0;rounded=0;exitX=1;exitY=0.5;exitDx=0;exitDy=0;entryX=0.5;entryY=1;entryDx=0;entryDy=0;" parent="1" source="2chP5V-80Bp2So6Rcc1P-158" target="2chP5V-80Bp2So6Rcc1P-73" edge="1">
          <mxGeometry width="100" height="100" relative="1" as="geometry">
            <mxPoint x="410" y="990" as="sourcePoint" />
            <mxPoint x="1240" y="890" as="targetPoint" />
          </mxGeometry>
        </mxCell>
        <mxCell id="2chP5V-80Bp2So6Rcc1P-163" value="1 ou N" style="text;html=1;align=center;verticalAlign=middle;resizable=0;points=[];autosize=1;strokeColor=none;fillColor=none;" parent="1" vertex="1">
          <mxGeometry x="230" y="310" width="60" height="30" as="geometry" />
        </mxCell>
        <mxCell id="2chP5V-80Bp2So6Rcc1P-165" value="0 ou N" style="text;html=1;align=center;verticalAlign=middle;resizable=0;points=[];autosize=1;strokeColor=none;fillColor=none;" parent="1" vertex="1">
          <mxGeometry x="1250" y="710" width="60" height="30" as="geometry" />
        </mxCell>
        <mxCell id="2chP5V-80Bp2So6Rcc1P-166" value="Endereço" style="ellipse;whiteSpace=wrap;html=1;" parent="1" vertex="1">
          <mxGeometry x="1710" y="500" width="120" height="50" as="geometry" />
        </mxCell>
        <mxCell id="2chP5V-80Bp2So6Rcc1P-167" value="Endereço" style="ellipse;whiteSpace=wrap;html=1;" parent="1" vertex="1">
          <mxGeometry x="1350" y="140" width="120" height="50" as="geometry" />
        </mxCell>
        <mxCell id="2chP5V-80Bp2So6Rcc1P-173" value="Fornece" style="shape=rhombus;perimeter=rhombusPerimeter;whiteSpace=wrap;html=1;align=center;" parent="1" vertex="1">
          <mxGeometry x="690" y="70" width="120" height="60" as="geometry" />
        </mxCell>
        <mxCell id="2chP5V-80Bp2So6Rcc1P-174" value="" style="fontSize=12;html=1;endArrow=ERoneToMany;rounded=0;exitX=0;exitY=0.5;exitDx=0;exitDy=0;edgeStyle=orthogonalEdgeStyle;endFill=0;entryX=0.5;entryY=0;entryDx=0;entryDy=0;" parent="1" source="2chP5V-80Bp2So6Rcc1P-173" target="2chP5V-80Bp2So6Rcc1P-2" edge="1">
          <mxGeometry width="100" height="100" relative="1" as="geometry">
            <mxPoint x="850" y="85" as="sourcePoint" />
            <mxPoint x="230" y="210" as="targetPoint" />
            <Array as="points">
              <mxPoint x="230" y="100" />
            </Array>
          </mxGeometry>
        </mxCell>
        <mxCell id="2chP5V-80Bp2So6Rcc1P-177" value="" style="endArrow=classic;html=1;rounded=0;entryX=0.092;entryY=0.8;entryDx=0;entryDy=0;exitX=1;exitY=0;exitDx=0;exitDy=0;entryPerimeter=0;" parent="1" source="2chP5V-80Bp2So6Rcc1P-173" target="2chP5V-80Bp2So6Rcc1P-119" edge="1">
          <mxGeometry width="50" height="50" relative="1" as="geometry">
            <mxPoint x="980" y="-50" as="sourcePoint" />
            <mxPoint x="1040" y="-145" as="targetPoint" />
            <Array as="points" />
          </mxGeometry>
        </mxCell>
        <mxCell id="2chP5V-80Bp2So6Rcc1P-178" value="1 ou N" style="text;html=1;align=center;verticalAlign=middle;resizable=0;points=[];autosize=1;strokeColor=none;fillColor=none;" parent="1" vertex="1">
          <mxGeometry x="230" y="220" width="60" height="30" as="geometry" />
        </mxCell>
        <mxCell id="kOLeNwmjGe_1gQFPbuQZ-4" value="" style="fontSize=12;html=1;endArrow=ERoneToMany;rounded=0;edgeStyle=orthogonalEdgeStyle;endFill=0;exitX=1;exitY=0.5;exitDx=0;exitDy=0;entryX=0.5;entryY=0;entryDx=0;entryDy=0;" parent="1" source="2chP5V-80Bp2So6Rcc1P-173" target="2chP5V-80Bp2So6Rcc1P-38" edge="1">
          <mxGeometry width="100" height="100" relative="1" as="geometry">
            <mxPoint x="1360" y="50" as="sourcePoint" />
            <mxPoint x="1250" y="200" as="targetPoint" />
            <Array as="points">
              <mxPoint x="1250" y="100" />
            </Array>
          </mxGeometry>
        </mxCell>
        <mxCell id="kOLeNwmjGe_1gQFPbuQZ-5" value="1 ou N" style="text;html=1;align=center;verticalAlign=middle;resizable=0;points=[];autosize=1;strokeColor=none;fillColor=none;" parent="1" vertex="1">
          <mxGeometry x="1250" y="225" width="60" height="30" as="geometry" />
        </mxCell>
      </root>
    </mxGraphModel>
  </diagram>
</mxfile>
